<?xml version="1.0" standalone="no"?>
<!DOCTYPE svg PUBLIC "-//W3C//DTD SVG 20010904//EN"
 "http://www.w3.org/TR/2001/REC-SVG-20010904/DTD/svg10.dtd">
<svg version="1.0" xmlns="http://www.w3.org/2000/svg"
 width="626.000000pt" height="626.000000pt" viewBox="0 0 626.000000 626.000000"
 preserveAspectRatio="xMidYMid meet">

<g transform="translate(0.000000,626.000000) scale(0.100000,-0.100000)"
fill="#000000" stroke="none">
<path d="M5510 5852 c-549 -428 -954 -774 -1324 -1132 -327 -317 -640 -645
-855 -895 -52 -61 -100 -116 -107 -124 -11 -12 -20 -7 -56 28 -51 49 -75 57
-123 41 -48 -16 -149 -110 -174 -164 -32 -65 -28 -105 14 -146 19 -19 35 -38
35 -44 0 -5 -43 -53 -95 -107 -86 -89 -95 -102 -95 -136 0 -61 -28 -173 -57
-233 -40 -83 -143 -179 -244 -229 -84 -41 -181 -71 -229 -71 -22 0 -100 -78
-437 -433 -404 -427 -410 -434 -417 -483 -10 -67 -41 -178 -72 -255 -154 -379
-450 -739 -877 -1065 l-78 -59 73 -8 c258 -27 629 46 994 196 476 195 935 505
1464 987 157 144 572 557 714 713 l99 107 -23 78 c-13 42 -25 83 -27 90 -8 21
20 13 78 -22 l57 -34 48 49 48 49 56 -53 c124 -119 159 -147 185 -147 91 0
235 150 238 249 1 32 -8 43 -112 142 l-114 107 7 54 c46 363 288 614 671 697
l79 17 8 40 c39 190 159 396 304 520 126 108 289 198 445 246 l77 23 26 115
c55 244 60 290 61 560 0 281 -11 376 -66 563 -35 117 -87 237 -103 236 -6 0
-49 -30 -96 -67z m115 -154 c90 -288 107 -622 49 -963 -25 -150 -47 -229 -65
-233 -14 -2 -13 10 7 99 72 322 72 712 -2 1002 -13 54 -32 116 -40 138 -16 39
-14 69 5 69 6 0 26 -51 46 -112z m-117 3 c7 -21 12 -41 12 -44 0 -7 -144 -117
-153 -117 -8 0 -29 68 -25 80 3 10 139 119 149 120 3 0 11 -17 17 -39z m-228
-156 c22 -58 51 -232 60 -369 21 -292 -26 -863 -68 -822 -1 2 2 40 7 85 18
144 33 482 26 606 -8 165 -21 262 -51 383 -24 99 -25 105 -8 123 22 24 23 24
34 -6z m-95 -137 c24 -107 45 -271 45 -364 l0 -80 -61 -43 c-34 -24 -97 -72
-140 -107 -78 -63 -79 -63 -94 -41 -8 12 -15 25 -15 29 0 4 54 51 120 103
l120 96 0 52 c0 81 -20 271 -29 280 -17 17 -592 -514 -926 -854 -371 -379
-591 -645 -720 -870 -32 -56 -36 -60 -31 -29 7 38 57 154 94 215 39 65 -7 14
-67 -74 -28 -41 -51 -70 -51 -64 0 12 86 146 133 208 27 36 24 34 -26 -14 -31
-30 -77 -80 -104 -112 -26 -32 -49 -56 -52 -54 -6 6 73 108 159 205 75 85 67
82 -51 -20 -77 -66 -66 -51 121 155 173 190 587 608 790 796 240 221 744 658
762 659 3 0 14 -33 23 -72z m405 -118 c0 -25 -12 -38 -81 -91 -44 -33 -82 -59
-84 -57 -2 1 -5 14 -7 28 -2 21 10 34 81 87 46 35 85 63 87 63 2 0 4 -13 4
-30z m3 -225 c10 34 -3 -154 -20 -280 -18 -136 -32 -177 -34 -100 l-1 50 -10
-35 c-13 -49 -28 -61 -29 -24 -1 28 -2 27 -11 -8 -12 -45 -33 -52 -23 -8 11
48 -4 35 -16 -15 -14 -55 -30 -60 -23 -7 4 32 3 34 -6 13 -6 -13 -12 -22 -14
-20 -2 2 0 54 5 114 4 61 9 148 10 195 1 47 4 74 6 60 8 -43 23 -47 23 -7 0
46 20 50 21 5 1 -29 3 -28 13 15 l11 49 12 -29 11 -28 1 32 c1 43 21 53 22 11
2 -29 3 -28 12 16 l11 49 12 -34 c9 -29 12 -31 17 -14z m-365 -325 c-6 -135
-17 -157 -100 -198 -35 -16 -72 -37 -83 -47 l-20 -16 20 9 c28 13 95 22 95 13
0 -4 -21 -17 -46 -30 -59 -28 -109 -66 -134 -101 -18 -25 -13 -24 47 16 64 42
188 92 200 80 3 -3 3 -15 -1 -28 -4 -16 -25 -32 -68 -53 -254 -121 -418 -368
-418 -630 l0 -82 -112 -6 c-326 -15 -561 -196 -674 -517 -17 -50 -23 -58 -23
-36 -2 75 68 255 143 365 20 30 35 56 33 58 -10 9 -156 -160 -183 -211 -16
-31 -32 -56 -36 -56 -9 0 30 108 62 171 22 42 22 43 2 26 -11 -10 -40 -45 -63
-77 -24 -33 -45 -58 -47 -56 -2 2 11 33 28 67 l31 64 -36 -40 c-19 -22 -53
-66 -75 -99 -22 -32 -40 -52 -40 -45 0 20 36 111 69 178 28 55 31 57 64 53 20
-2 43 1 53 6 15 8 11 10 -19 10 -103 0 -171 121 -117 209 41 68 121 91 187 53
50 -27 73 -66 74 -122 l1 -43 10 35 c13 46 60 138 115 225 l44 70 -48 -50
c-27 -27 -65 -70 -84 -94 l-36 -44 -17 26 c-17 25 -17 27 25 84 66 90 195 249
284 348 92 104 346 365 354 365 3 -1 17 -10 30 -21 l24 -20 -54 -57 c-112
-118 -121 -133 -25 -44 55 51 107 92 115 92 9 0 2 9 -16 20 -132 80 -28 281
111 215 49 -23 70 -65 64 -127 -4 -41 -3 -46 8 -30 7 10 15 34 19 54 7 38 34
61 195 165 77 50 74 54 68 -97z m283 -258 c-5 -10 -37 -30 -70 -44 -59 -25
-61 -26 -61 -7 0 15 15 27 53 44 66 30 92 32 78 7z m-431 -198 c-45 -46 -45
-46 -10 -25 52 31 58 25 11 -12 -23 -18 -55 -50 -73 -71 l-32 -39 48 37 c71
54 76 44 13 -22 -92 -97 -186 -258 -218 -375 -6 -23 -14 -36 -16 -29 -7 19 17
139 38 195 10 26 17 47 14 47 -7 0 -60 -109 -76 -155 -19 -59 -23 -19 -5 59
20 83 71 186 130 258 39 49 195 178 214 178 3 0 -14 -21 -38 -46z m-1409
-1133 c508 -482 610 -584 571 -570 -6 2 -245 227 -533 499 -287 272 -551 523
-588 558 -48 45 -60 62 -45 60 12 -2 269 -238 595 -547z m-566 451 c-2 -3 -13
1 -22 9 -16 13 -17 12 -4 -4 18 -22 7 -34 -15 -16 -16 13 -16 12 -6 -8 15 -28
15 -40 0 -25 -7 7 -16 12 -22 12 -6 0 -5 -5 2 -12 20 -20 14 -30 -10 -17 -21
11 -22 11 -9 -5 28 -34 3 -24 -33 13 l-38 39 21 31 c12 17 32 37 44 46 20 14
24 13 59 -22 21 -20 36 -39 33 -41z m1395 13 c0 -2 -39 -25 -87 -50 -110 -57
-164 -97 -65 -49 40 20 75 34 77 32 3 -3 -16 -18 -43 -35 -116 -76 -233 -221
-288 -357 -41 -103 -41 -73 0 49 4 11 -9 -9 -28 -45 -38 -71 -44 -69 -21 6 20
67 19 67 -15 4 -33 -62 -37 -57 -15 16 18 59 17 57 5 49 -6 -3 -7 1 -4 9 3 9
10 13 15 10 5 -3 6 1 3 9 -8 21 71 130 137 191 69 62 154 110 254 142 82 27
75 25 75 19z m-805 -780 c226 -213 412 -392 413 -396 18 -46 -111 69 -601 533
-315 298 -576 545 -581 549 -5 4 -6 15 -2 24 5 13 45 -20 184 -152 97 -94 362
-344 587 -558z m-56 266 c71 -69 82 -82 41 -50 l-55 43 41 -45 c68 -74 72 -86
12 -36 -32 27 -58 46 -58 42 0 -3 21 -29 48 -57 47 -52 41 -50 -48 19 -24 19
-19 10 20 -30 30 -31 49 -57 43 -57 -6 0 -16 7 -23 15 -7 9 -32 30 -54 48
l-41 32 38 -43 c20 -23 37 -45 37 -48 0 -3 -106 95 -235 217 -129 123 -232
225 -230 227 3 3 12 -1 22 -9 11 -9 9 -2 -7 20 -23 34 -15 34 24 2 16 -13 18
-13 11 -1 -4 8 -15 23 -23 33 -8 9 -10 17 -5 17 6 0 16 -7 23 -15 7 -8 17 -15
23 -15 5 0 3 8 -6 18 -25 28 -20 35 10 15 l26 -18 -19 30 c-17 28 173 -147
385 -354z m-611 225 l37 -35 -60 -60 c-33 -34 -67 -64 -77 -67 -9 -3 -36 5
-59 16 l-41 22 33 36 c86 94 114 122 121 122 5 0 25 -16 46 -34z m115 -154
c71 -130 75 -292 11 -494 -4 -14 8 -12 78 14 69 26 102 32 193 35 158 7 246
-17 326 -90 l37 -32 -23 -29 -24 -30 -69 32 c-88 41 -234 64 -321 52 -132 -19
-132 -18 -626 -518 -600 -606 -836 -824 -1194 -1101 -268 -207 -242 -179 124
136 535 461 1201 1145 1372 1409 75 117 120 315 103 449 -5 33 -9 69 -10 80
-1 11 -8 -23 -15 -75 -8 -52 -24 -126 -36 -165 l-23 -70 -9 93 c-5 50 -13 92
-18 92 -5 0 -9 -14 -9 -31 0 -34 -28 -166 -40 -188 -5 -10 -12 5 -20 42 -7 32
-15 55 -17 53 -2 -2 -10 -52 -18 -111 -20 -150 -25 -162 -41 -100 -8 28 -14
60 -14 73 0 44 -17 12 -24 -45 -10 -92 -28 -173 -36 -168 -4 3 -11 28 -14 57
-8 59 -26 100 -26 59 0 -13 -10 -65 -22 -115 -23 -98 -29 -97 -43 9 l-7 50
-24 -100 c-12 -55 -23 -106 -23 -112 -1 -7 -5 -13 -10 -13 -4 0 -12 37 -16 83
l-7 82 -19 -90 c-10 -49 -25 -108 -32 -130 l-14 -40 -8 90 -8 90 -19 -85 c-10
-47 -26 -107 -35 -135 l-18 -50 -5 90 -5 90 -13 -55 c-7 -30 -23 -86 -35 -125
l-22 -70 -5 85 c-4 68 -7 79 -14 55 -31 -113 -58 -195 -65 -199 -5 -3 -7 26
-6 64 2 42 0 68 -6 65 -5 -4 -9 -13 -9 -21 0 -22 -50 -167 -61 -179 -6 -6 -7
17 -3 65 4 41 4 73 1 70 -2 -3 -19 -48 -37 -100 -17 -52 -35 -99 -40 -104 -5
-5 -7 21 -4 65 5 82 -1 77 -36 -36 -12 -38 -29 -81 -37 -95 -13 -23 -14 -19
-9 49 3 40 3 72 1 70 -2 -2 -14 -36 -28 -75 -14 -39 -32 -84 -41 -100 -17 -29
-17 -29 -13 36 5 69 4 69 -38 -47 -33 -91 -48 -103 -44 -35 4 53 -5 62 -14 15
-3 -16 -18 -55 -34 -88 l-28 -60 -6 50 c-3 28 -7 42 -7 31 -2 -22 -51 -136
-65 -151 -6 -6 -8 9 -5 43 6 63 1 60 -24 -13 -10 -30 -27 -69 -38 -87 l-20
-33 0 50 -1 50 -22 -65 c-12 -36 -30 -76 -40 -90 l-17 -24 0 44 -1 45 -17 -51
c-10 -28 -36 -79 -57 -113 -42 -64 -67 -83 -39 -30 53 104 92 253 99 383 l5
78 366 362 367 361 66 21 c147 46 324 155 432 265 95 97 179 268 179 365 0 27
11 42 73 98 39 36 75 66 78 66 3 0 18 -22 32 -48z m-253 -101 c0 -34 -31 -128
-61 -191 -74 -148 -345 -352 -516 -386 -25 -5 -31 -1 -46 31 -10 21 -16 39
-14 41 2 3 31 11 63 19 32 8 95 33 139 55 187 92 302 236 336 422 l12 66 44
-21 c23 -11 43 -28 43 -36z m530 -121 l155 -151 -65 6 c-59 5 -186 -6 -234
-21 -16 -5 -17 -2 -11 28 11 47 8 217 -4 256 -5 17 -7 32 -3 32 4 0 77 -68
162 -150z m618 -242 c-62 69 -43 61 40 -19 42 -41 77 -77 76 -81 -1 -5 -2 -13
-2 -20 -2 -9 -5 -9 -14 0 -21 21 -32 13 -12 -9 l19 -22 -25 13 c-21 11 -23 11
-14 -1 17 -20 -7 -43 -26 -26 -10 10 -12 8 -6 -6 7 -22 -69 39 -124 99 l-35
38 50 -39 50 -39 -30 35 c-76 86 -79 93 -22 45 69 -58 74 -50 10 18 -40 41
-42 45 -13 23 85 -66 95 -70 48 -21 -65 68 -60 76 10 17 l57 -48 -37 43z
m-546 -144 c24 -5 30 -15 57 -102 l30 -96 -27 -36 c-52 -69 -720 -729 -872
-862 -508 -443 -921 -709 -1373 -887 -136 -53 -296 -105 -303 -98 -3 2 73 35
168 72 234 91 298 119 398 173 108 58 292 173 287 179 -3 2 -82 13 -178 24
-95 11 -175 21 -177 23 -2 3 6 9 17 16 16 8 65 7 197 -6 165 -16 178 -16 211
0 20 9 34 18 32 20 -2 2 -74 9 -159 16 -237 18 -229 9 -94 115 63 50 120 91
127 93 8 2 87 -9 176 -23 90 -14 173 -25 186 -25 21 0 137 82 265 189 30 25
57 47 59 48 11 8 -16 12 -174 27 -93 9 -185 19 -204 22 -34 5 -34 6 -15 25 20
19 22 19 233 -1 200 -19 215 -20 239 -4 19 13 22 18 11 24 -8 4 -101 15 -206
25 -106 10 -193 21 -193 24 0 3 14 20 32 38 38 40 44 40 298 14 l175 -18 23
22 24 22 -179 18 c-98 9 -193 20 -211 24 l-33 6 59 58 59 58 217 -21 217 -21
57 50 c31 27 92 85 136 129 l78 80 -28 5 c-16 4 -111 14 -211 23 -101 10 -183
21 -183 24 0 4 7 13 15 20 11 9 60 8 232 -9 216 -21 217 -21 237 -2 26 27 28
26 -194 46 -102 10 -191 21 -197 24 -8 4 25 44 95 113 l107 107 203 -31 202
-32 45 44 c25 24 45 51 45 59 0 7 -9 44 -20 81 -19 65 -21 68 -58 74 -20 3
-64 6 -96 6 -37 0 -56 4 -50 9 18 19 103 21 186 5z m733 -14 c3 -5 -13 -30
-36 -55 -32 -35 -45 -43 -55 -34 -11 9 -5 20 29 54 44 47 52 51 62 35z m-2023
-59 l15 -39 -358 -358 c-351 -351 -358 -357 -384 -346 l-27 12 33 38 c72 82
692 732 699 732 4 0 14 -17 22 -39z m-749 -815 c32 -25 17 -177 -32 -318 -56
-161 -188 -356 -340 -501 -87 -82 -296 -247 -315 -247 -5 0 36 46 90 103 122
127 208 232 294 362 118 180 221 405 251 553 13 64 21 71 52 48z"/>
<path d="M4766 4708 c-19 -27 -20 -39 -5 -72 23 -49 37 -39 41 30 3 69 -8 82
-36 42z"/>
<path d="M4840 4665 c0 -54 3 -63 15 -59 37 14 47 80 17 107 -10 10 -22 17
-25 17 -4 0 -7 -29 -7 -65z"/>
<path d="M4609 4043 c-11 -25 -25 -77 -31 -114 -14 -78 -28 -73 -28 11 0 39
-3 51 -10 40 -5 -8 -10 -44 -10 -80 -1 -68 -2 -68 -37 -13 -10 16 -11 16 -6
-6 6 -22 4 -23 -28 -17 l-34 7 31 -15 c55 -25 51 -36 -13 -37 -87 -1 -115 -17
-31 -18 37 -1 70 -5 73 -11 4 -6 -6 -10 -23 -10 -35 0 -147 -34 -182 -56 -19
-11 -20 -14 -5 -10 102 26 165 33 164 19 0 -5 -26 -20 -57 -35 -31 -15 -70
-39 -87 -53 l-30 -25 35 19 c57 32 179 69 270 81 l85 12 -3 49 c-5 58 22 196
49 259 28 67 -5 20 -44 -62 -18 -37 -36 -67 -41 -67 -10 -1 0 118 14 154 17
44 0 27 -21 -22z"/>
<path d="M3903 3738 c2 -7 13 -40 23 -73 22 -74 22 -74 40 -51 22 31 18 83
-11 111 -25 26 -61 34 -52 13z"/>
<path d="M3832 3705 c-17 -37 -15 -59 9 -89 19 -24 59 -36 59 -18 0 18 -42
132 -49 132 -4 0 -13 -11 -19 -25z"/>
</g>
</svg>
